<?xml version="1.0" standalone="no"?><!DOCTYPE svg PUBLIC "-//W3C//DTD SVG 1.1//EN" "http://www.w3.org/Graphics/SVG/1.1/DTD/svg11.dtd"><svg t="1585189448090" class="icon" viewBox="0 0 1024 1024" version="1.1" xmlns="http://www.w3.org/2000/svg" p-id="1328" xmlns:xlink="http://www.w3.org/1999/xlink" width="200" height="200"><defs><style type="text/css"></style></defs><path d="M932.264 273.008c-2.936-23.808-8.4-47.232-20.528-68.52-3.392-5.92-6.24-12.184-9.304-18.32-15.736-31.152-39.728-53.52-72.28-66.12-16.744-6.504-34.32-10.768-51.04-17.296-22.112-8.616-44.88-10.04-68.216-9.944-81.52 0.4-163.04 0.4-244.56 0.184-14.536-0.016-29.04-1.96-43.576-2.56-26.536-1.088-53.08-2.88-79.4 3.312-12.448 2.96-25.216 4.832-37.952 6.296-31.936 3.632-61.44 15.056-90.48 27.8-7.776 3.376-15.224 7.936-22.128 12.936-27.28 19.68-52.272 41.64-70.256 70.696-8.104 13.12-17.184 25.616-25.36 38.656-7.616 12.12-9.792 25.56-7.36 39.6 1.2 6.76 1.904 13.248 1.12 20.272-3.68 33.36-4.016 66.688 2.696 99.808 6.184 30.528 16.984 59.304 33.024 85.984 10.24 17.04 23.32 31.84 39.392 43.72 9.64 7.136 19.36 14.2 29.544 20.56 27.264 17.144 56.56 28.704 89.344 27.952 23.072-0.528 46.12-2.448 69.184-3.632 8.36-0.416 14.832-4 19.36-10.88 3.336-4.992 6.696-10 9.392-15.36 8.72-17.08 2.216-33.28-16.128-38.48-8.104-2.28-16.88-2.216-25.344-3.16-9.328-1.024-18.944-0.8-27.904-3.2-25.6-6.88-50.672-15.76-76.424-21.968-18.384-4.48-33.36-12.936-45.184-27.32-6-7.28-11.56-14.848-17.6-22.104-8-9.6-11.8-21.16-13.312-32.992-2.608-20.36-6.544-40.624-5.84-61.36 0.504-14.576-0.176-29.184 0.16-43.76 0.856-32.496 10.448-62.224 28.608-89.224 10.4-15.464 24.24-26.72 41.384-33.4 30.784-12.016 62.584-17.24 95.68-12.848 7.56 1 15.376 1.064 22.96 0.368 22.984-2.12 45.904-5.856 68.944-7.096 53.104-2.864 106.24-4.608 159.36-6.824 42.16-1.96 84 2.704 125.84 6.56 16.92 1.568 33.864 5.16 50.376 9.424 16.56 4.24 32.704 10.16 48.8 15.96 8.832 3.16 17.44 7.168 25.72 11.6 17.32 9.328 29.096 23.376 34.936 42.448 8.8 28.8 16.16 57.68 14.672 88.24-0.72 14.56-0.024 29.176-0.16 43.76-0.48 44.744 0.736 33.632-17.28 73.84-0.368 0.784-0.8 1.52-1.168 2.304-6.2 13.408-15.04 24.8-25.816 34.896-7.12 6.656-14.88 10.92-24.72 12.432-17.84 2.8-35.68 4.52-53.76 3.792-19.8-0.784-39.408 0.576-58.32 7.064-7.44 2.56-15 4.48-22.664 2.208-12.272-3.648-23.72 1.4-35.44 2.88-8.44 1.072-14.296 10.288-14.296 19.016-0.016 14.592 8.32 25.232 23 25.856 17.952 0.8 36.2 1.088 53.896-1.36a302.624 302.624 0 0 1 38.32-2.992c23.144-0.32 46.08-2.48 69.12-5.04 36.4-4 60.984-25.016 83.648-50.416 1.68-1.88 3.36-4.16 3.968-6.544 3.04-11.92 10.216-21.6 16.48-31.84 8.144-13.336 12.576-28.064 15.624-43.28 2-10.08 3.12-20.344 5.6-30.32 9.152-37.2 8.216-74.784 3.616-112.288z m-141.04 567.72c-8.016-16.368-19.792-29.936-32.24-43.04-24.8-26.112-49.44-52.416-74.048-78.72-1.12-1.152-1.44-3.04-2.16-4.56 1.52-0.64 3.016-1.68 4.56-1.8 25.568-2.2 51.168-4.096 76.72-6.448 13.024-1.232 21.92-16.136 17.776-28.848-8.32-25.344-9.32-26.56-34.384-37.464-5.464-2.4-11.232-4.08-16.896-6-25.896-8.88-51.568-18.184-76.344-30.16-33.904-16.432-68.52-31.44-103.28-46-18.896-7.944-38.64-13.816-58.016-20.544-3.24-1.104-6.608-1.84-10.376-2.896-2.032 0.6-4.608 1.024-6.88 2.096-5.384 2.64-10.848 5.168-15.864 8.448-12.848 8.344-18.032 19.856-14.304 35.28 12.752 52.416 23.384 105.36 44.544 155.44 14.336 33.904 26.72 68.64 39.976 103.016 1.84 4.776 3.2 9.864 5.864 14.2 8.448 13.8 26.456 15.648 36.696 3.48 6.024-7.152 11.056-15.232 15.744-23.328 6-10.4 11.064-21.312 16.8-31.84 3.28-6.024 6.64-6.024 11.712-0.6 1.76 1.88 3.632 3.68 5.2 5.696 26.432 33.792 52.784 67.616 79.2 101.376 5.28 6.752 10.48 13.624 16.24 19.92 5.28 5.736 11.728 6.128 18.704 2.16 2.216-1.28 4.68-2.4 6.44-4.128 18.288-18.136 36.64-36.184 54.528-54.696 8.056-8.32 7.52-11.44-0.144-21.616-2.032-2.72-4.28-5.392-5.76-8.416z m-28.064 10.856c-5.256 8.736-10.52 17.624-17.008 25.44-5.96 7.16-16.4 6.16-22.72-0.8-0.6-0.64-1.28-1.2-1.784-1.88-21.504-29.92-42.84-59.92-64.44-89.76-12.56-17.384-25.584-34.432-38.24-51.76-2.936-4.056-6.504-5.2-11.04-4.144-8.608 1.936-16.136 5.84-21.64 12.96-4.696 6.096-9.12 12.4-13.736 18.592-2.064 2.8-6.4 2.112-8.096-1.328a114.144 114.144 0 0 1-4.16-9.384c-9.12-23.12-18-46.344-27.28-69.408a3896.104 3896.104 0 0 0-25.6-61.68c-6.376-14.976-13.104-29.808-19.552-44.76-0.512-1.2-0.536-3.472 0.16-4a5.616 5.616 0 0 1 4.576-0.784c4.848 1.68 9.616 3.624 14.32 5.656 39.336 16.936 78.96 33.256 117.44 52.272 31.44 15.52 63.152 30.776 97.28 40.024 0.944 0.272 1.456 2.216 2.112 3.328-1.264 1.424-2.256 3.544-3.536 3.744-7.6 1.2-15.2 2.4-22.88 2.704-22.216 0.912-41.16 10.68-59.84 21.32-0.864 0.48-1.416 3.328-0.816 4.096 16.296 21.968 30.56 45.52 50.176 64.96 23.12 22.976 45.96 46.256 68.864 69.44 2.4 2.44 4.864 4.992 6.48 7.92 1.12 2.056 1.952 5.552 0.944 7.224zM407.104 326c-6.032-3.16-12.48-5.48-18.72-8.296-3.344-1.536-4.104-5.304-0.992-7.2 11.904-7.2 13.568-18.84 14.528-31.168-1.488-16.352-5.648-31.952-15.72-45.312-11.552-15.24-26.48-23.76-46.464-21.776-23.184 2.32-46.016 5.224-64.16 22.056a11.568 11.568 0 0 1-4.416 2.584c-15.336 4.32-18.856 15.888-18.344 29.84 1.024 27.36 2.344 54.68 3.12 82.032 0.736 26.456 3.04 52.936-1.248 79.36a55.856 55.856 0 0 0 0.16 17.84c2.256 13.04 14.024 20.512 26.616 16.336 6.64-2.216 13.12-3.072 19.936-3.8 28.08-2.96 55.76-8.432 81.944-19.336 24.704-10.288 43.36-26.856 51.648-53.504 2.36-7.656 2.832-14.848 1.136-22.616-3.736-17.136-13.872-29.08-29.04-37.016zM300.264 267.2c0.24-10.88 3.808-15.6 14.576-17.504 6.68-1.16 13.64-1.072 20.464-1.12 7.4-0.024 13.28 3.52 17.24 9.6 8.896 13.648 10.2 19.24-2.536 31.2-12.48 11.736-25.12 23.304-40.96 30.56-2.8 1.28-8.112-1.12-8.2-3.92-0.144-9.416-0.04-18.824-0.04-28.256h-0.56c0-6.848-0.112-13.704 0.04-20.56z m89.224 121.2c-1.92 1.68-4 3.96-6.28 4.32-23.088 3.32-43.6 15.04-66.08 20.264-1.64 0.384-3.384 0.368-5.096 0.512-5.504 0.512-9.816-2.816-10.92-8.448-0.304-1.656-0.768-3.36-0.856-5.016-0.104-3.416-0.016-6.864-0.016-15.784 0.448-3.04 1.664-11.488 3.024-19.936 1.296-8.208 1.44-7.76 11.536-9.816 7.52-1.48 14.704-4.296 22.064-6.48 13.552-4 27.064-4.08 40.192 1.4a51.544 51.544 0 0 1 12.936 8.104c10.544 9 10.224 21.576-0.48 30.928z m74.92-24.024c0.344 11.136-0.024 22.32 1.2 33.36 2.8 24.8 14.656 43.104 38.56 53.144 16.4 6.88 31.464 6.616 45.96-3.8 8.48-6.104 14.984-14 20.096-23.064 8.056-14.24 13.456-29.504 17.424-45.328 10.24-40.88 10.704-82.96 15.6-124.504 1.04-9.04-2.768-16.72-5.52-24.768-1.56-4.64-5.344-6.368-9.808-7-14.6-2.032-21.328 2.24-24.32 15.984a65.52 65.52 0 0 0-1.6 15.28c0.4 18.056-2.52 35.744-5.28 53.48-4.12 26.144-7.84 52.448-18.056 77.168-3.24 7.864-7.336 15.36-11.296 22.856-0.72 1.36-3.12 3.28-3.84 2.96-2.184-0.96-4.832-2.56-5.712-4.616-7.056-16.64-11.36-34-11.52-52.2-0.256-26.536-0.36-53.08-0.6-79.648-0.08-6.864 0.24-13.84-0.984-20.48-0.88-4.8-3.36-9.68-6.32-13.584-4.528-5.888-12-6.696-18.512-3.304-9.52 5.008-16.928 11.256-17.408 23.304-0.4 9.36-1.92 18.656-3.12 29.48 1.168 9.68 3.008 20.624 3.704 31.624 0.88 14.512 0.928 29.08 1.36 43.6z m259.44-32.896c19.304-17.088 34.296-38.08 48.664-59.392 4.24-6.296 7.76-13.312 10.24-20.48 2.4-6.936 0.056-13.408-5.864-18.32-9.712-8.104-20.912-8.72-30.256-0.544-5.736 5.024-10.752 11.016-15.48 17.008-7.424 9.408-13.976 19.48-21.536 28.72-11.312 13.864-14.08 14.08-25.952 1.632-11.8-12.376-22.848-25.44-34.272-38.144-4.024-4.48-8.352-8.4-14.584-9.896-12.8-3.056-22.136 4.56-21.72 17.64 0.28 9.024 4.112 16.504 8.96 23.64 11.12 16.336 23.488 31.704 38.376 44.696 9.76 8.536 14.464 17.168 11.4 31.088-2.52 11.416-0.512 23.84-0.512 35.816h-1.36c0 11.984-0.536 23.976 0.128 35.952 0.96 17.2 15.52 26.8 32.8 22.048 2.32-0.64 5.2-2.272 6.08-4.24 3.2-6.856 7.92-13.6 6.056-21.744-4.264-18.624-1.408-37.544-2.752-56.272-0.856-11.944 2.184-20.856 11.584-29.168z" p-id="1329"></path></svg>